<svg width="16" height="16" viewBox="0 0 16 16" fill="none" xmlns="http://www.w3.org/2000/svg">
<path d="M14.2609 15.6527H1.73913C0.765217 15.6527 0 14.9044 0 13.952V1.70682C0 0.75442 0.765217 0.00610352 1.73913 0.00610352H14.2609C15.2348 0.00610352 16 0.75442 16 1.70682V13.952C16 14.9044 15.2348 15.6527 14.2609 15.6527ZM8 2.72725C5.11304 2.72725 2.78261 5.00621 2.78261 7.82941C2.78261 10.6526 5.11304 12.9316 8 12.9316C10.887 12.9316 13.2174 10.6526 13.2174 7.82941C13.2174 5.00621 10.887 2.72725 8 2.72725ZM13.3913 1.02653C12.5217 1.02653 11.8261 1.70682 11.8261 2.55718C11.8261 3.40754 12.5217 4.08783 13.3913 4.08783C14.2609 4.08783 14.9565 3.40754 14.9565 2.55718C14.9565 1.70682 14.2609 1.02653 13.3913 1.02653ZM8 11.571C5.87826 11.571 4.17391 9.90428 4.17391 7.82941C4.17391 5.75453 5.87826 4.08783 8 4.08783C10.1217 4.08783 11.8261 5.75453 11.8261 7.82941C11.8261 9.90428 10.1217 11.571 8 11.571Z" fill="#A8A8A8"/>
</svg>
