<svg width="18" height="17" viewBox="0 0 18 17" fill="none" xmlns="http://www.w3.org/2000/svg">
<path d="M14.2519 12.3679C13.8081 12.3679 13.3741 12.5038 13.005 12.7582C12.636 13.0127 12.3483 13.3745 12.1784 13.7977C12.0085 14.2209 11.9641 14.6865 12.0507 15.1358C12.1373 15.5851 12.3511 15.9978 12.6649 16.3217C12.9788 16.6456 13.3787 16.8662 13.8141 16.9555C14.2495 17.0449 14.7007 16.999 15.1108 16.8237C15.5209 16.6484 15.8715 16.3516 16.1181 15.9707C16.3647 15.5898 16.4963 15.1421 16.4963 14.684C16.4957 14.0699 16.259 13.4812 15.8382 13.047C15.4175 12.6128 14.847 12.3686 14.2519 12.3679ZM14.2519 15.6105C14.0744 15.6105 13.9008 15.5562 13.7531 15.4544C13.6054 15.3526 13.4904 15.2079 13.4224 15.0386C13.3544 14.8693 13.3367 14.683 13.3713 14.5032C13.406 14.3235 13.4915 14.1584 13.617 14.0288C13.7426 13.8992 13.9026 13.811 14.0768 13.7752C14.251 13.7395 14.4315 13.7578 14.5956 13.8279C14.7596 13.8981 14.8999 14.0168 14.9985 14.1692C15.0972 14.3216 15.1498 14.5007 15.1498 14.684C15.1496 14.9296 15.0549 15.1651 14.8865 15.3387C14.7182 15.5124 14.49 15.61 14.2519 15.6102V15.6105Z" fill="#B798FF"/>
<path d="M17.8569 3.4164C17.794 3.33331 17.7135 3.26611 17.6217 3.2199C17.5298 3.1737 17.429 3.14971 17.3268 3.14975H4.15617L3.55078 0.533302C3.51552 0.381279 3.43163 0.245958 3.31267 0.149192C3.1937 0.0524272 3.0466 -0.000132888 2.89512 2.52322e-07H0.673242C0.494687 2.52322e-07 0.323445 0.0731963 0.197188 0.203486C0.0709307 0.333776 0 0.510487 0 0.694744C0 0.879002 0.0709307 1.05571 0.197188 1.186C0.323445 1.31629 0.494687 1.38949 0.673242 1.38949H2.36391L4.55203 10.838C4.58721 10.9899 4.67098 11.1252 4.78981 11.222C4.90865 11.3187 5.05562 11.3713 5.20699 11.3713H15.6881C15.8385 11.3713 15.9846 11.3194 16.103 11.2238C16.2215 11.1282 16.3055 10.9944 16.3417 10.8438L17.98 4.01137C18.0045 3.90906 18.0061 3.80234 17.9848 3.69927C17.9635 3.59621 17.9197 3.49948 17.8569 3.4164ZM15.1615 9.98291H5.73961L4.47926 4.54105H16.4675L15.1615 9.98291Z" fill="#B798FF"/>
<path d="M6.10473 12.3679C5.66083 12.3679 5.22691 12.5038 4.85782 12.7582C4.48874 13.0127 4.20107 13.3745 4.0312 13.7977C3.86132 14.2209 3.81688 14.6865 3.90348 15.1358C3.99008 15.5851 4.20383 15.9978 4.51772 16.3217C4.8316 16.6456 5.23151 16.8662 5.66687 16.9555C6.10224 17.0449 6.55351 16.999 6.96362 16.8237C7.37372 16.6484 7.72425 16.3516 7.97086 15.9707C8.21748 15.5898 8.34911 15.1421 8.34911 14.684C8.34846 14.0699 8.11179 13.4812 7.69103 13.047C7.27027 12.6128 6.69978 12.3686 6.10473 12.3679ZM6.10473 15.6105C5.92714 15.6105 5.75355 15.5562 5.60589 15.4544C5.45823 15.3526 5.34315 15.2079 5.27519 15.0386C5.20723 14.8693 5.18945 14.683 5.22409 14.5032C5.25874 14.3235 5.34425 14.1584 5.46983 14.0288C5.5954 13.8992 5.75539 13.811 5.92956 13.7752C6.10373 13.7395 6.28427 13.7578 6.44834 13.8279C6.61241 13.8981 6.75264 14.0168 6.8513 14.1692C6.94996 14.3216 7.00262 14.5007 7.00262 14.684C7.00234 14.9296 6.90764 15.1651 6.73931 15.3387C6.57097 15.5124 6.34275 15.61 6.10473 15.6102V15.6105Z" fill="#B798FF"/>
</svg>
