<svg width="22" height="12" viewBox="0 0 22 12" fill="none" xmlns="http://www.w3.org/2000/svg">
<path d="M21.1434 11.7351H18.7397C17.8296 11.7351 17.5495 11.0878 15.9159 9.60525C14.4923 8.37327 13.8622 8.20622 13.5122 8.20622C13.0221 8.20622 12.8821 8.33151 12.8821 8.93706V10.879C12.8821 11.401 12.6954 11.7142 11.1551 11.7142C8.61139 11.7142 5.7876 10.3361 3.80395 7.76772C0.816799 4.00915 0 1.19022 0 0.605548C0 0.292334 0.140023 0 0.816799 0H3.22052C3.82729 0 4.06066 0.250572 4.29403 0.835239C5.48422 3.90474 7.46788 6.59839 8.28467 6.59839C8.58806 6.59839 8.72808 6.4731 8.72808 5.78403V2.61012C8.63473 1.14845 7.77126 1.02317 7.77126 0.501143C7.77126 0.20881 8.0513 0 8.37802 0H12.1586C12.6721 0 12.8587 0.250572 12.8587 0.793477V5.07408C12.8587 5.53346 13.0921 5.70051 13.2321 5.70051C13.5355 5.70051 13.7922 5.53346 14.3523 5.03231C16.0793 3.29919 17.3161 0.626429 17.3161 0.626429C17.4795 0.250572 17.8996 0 18.3663 0.020881H20.77C21.4935 0.020881 21.6568 0.354977 21.4935 0.814358C21.1901 2.06722 18.2496 5.78403 18.2496 5.78403C17.9929 6.15989 17.8996 6.32693 18.2496 6.74455C18.5063 7.05777 19.3465 7.70508 19.9066 8.28975C20.9334 9.3338 21.7269 10.2108 21.9369 10.8163C22.1469 11.4219 21.8202 11.7351 21.1434 11.7351Z" fill="#A8A8A8"/>
</svg>
